<svg xmlns="http://www.w3.org/2000/svg" xmlns:xlink="http://www.w3.org/1999/xlink" viewBox="0 0 200 187"><mask id="mask0" mask-type="alpha"><path fill="#F3DDB3" d="M53.9,-19C62,7.4,55.3,37.1,36.8,50.6C18.3,64,-12,61.1,-31.3,46.3C-50.6,31.5,-58.9,4.8,-51.9,-20.1C-44.8,-45.1,-22.4,-68.4,0.2,-68.4C22.9,-68.5,45.8,-45.4,53.9,-19Z" transform="translate(100 100)"/></mask><g mask="url(#mask0)"><path fill="#F3DDB3" d="M53.9,-19C62,7.4,55.3,37.1,36.8,50.6C18.3,64,-12,61.1,-31.3,46.3C-50.6,31.5,-58.9,4.8,-51.9,-20.1C-44.8,-45.1,-22.4,-68.4,0.2,-68.4C22.9,-68.5,45.8,-45.4,53.9,-19Z" transform="translate(100 100)"/><image/></g></svg>